<svg aria-hidden="true" style="position: absolute; width: 0; height: 0; overflow: hidden;" version="1.1" xmlns="http://www.w3.org/2000/svg" xmlns:xlink="http://www.w3.org/1999/xlink">
<defs>
<symbol id="icon-upwork" viewBox="0 0 32 32">
<path d="M24.748 17.544c-1.469 0-2.847-0.623-4.099-1.636l0.304-1.435 0.011-0.056c0.276-1.524 1.132-4.080 3.785-4.080 1.989 0 3.604 1.616 3.604 3.604-0.001 1.985-1.616 3.603-3.605 3.603zM24.748 6.691c-3.385 0-6.013 2.199-7.080 5.821-1.627-2.445-2.864-5.381-3.583-7.856h-3.648v9.483c-0.003 1.875-1.521 3.395-3.396 3.397-1.873-0.003-3.391-1.524-3.393-3.397v-9.483h-3.648v9.483c0 3.885 3.16 7.071 7.041 7.071 3.884 0 7.044-3.185 7.044-7.071v-1.587c0.705 1.476 1.576 2.972 2.632 4.295l-2.231 10.497h3.729l1.617-7.613c1.417 0.905 3.047 1.479 4.915 1.479 4 0 7.252-3.269 7.252-7.267 0-4-3.252-7.252-7.252-7.252z"></path>
</symbol>
<symbol id="icon-license" viewBox="0 0 32 28">
<path d="M14 18.937c0 1.141-0.75 2.063-1.672 2.063h-6.656c-0.922 0-1.672-0.922-1.672-2.063 0-2.063 0.5-4.438 2.562-4.438 0.625 0.625 1.484 1 2.438 1s1.813-0.375 2.438-1c2.063 0 2.562 2.375 2.562 4.438zM12 12c0 1.656-1.344 3-3 3s-3-1.344-3-3 1.344-3 3-3 3 1.344 3 3zM28 18.5v1c0 0.281-0.219 0.5-0.5 0.5h-11c-0.281 0-0.5-0.219-0.5-0.5v-1c0-0.281 0.219-0.5 0.5-0.5h11c0.281 0 0.5 0.219 0.5 0.5zM22 14.5v1c0 0.281-0.219 0.5-0.5 0.5h-5c-0.281 0-0.5-0.219-0.5-0.5v-1c0-0.281 0.219-0.5 0.5-0.5h5c0.281 0 0.5 0.219 0.5 0.5zM28 14.5v1c0 0.281-0.219 0.5-0.5 0.5h-3c-0.281 0-0.5-0.219-0.5-0.5v-1c0-0.281 0.219-0.5 0.5-0.5h3c0.281 0 0.5 0.219 0.5 0.5zM28 10.5v1c0 0.281-0.219 0.5-0.5 0.5h-11c-0.281 0-0.5-0.219-0.5-0.5v-1c0-0.281 0.219-0.5 0.5-0.5h11c0.281 0 0.5 0.219 0.5 0.5zM30 23.5v-17.5h-28v17.5c0 0.266 0.234 0.5 0.5 0.5h27c0.266 0 0.5-0.234 0.5-0.5zM32 4.5v19c0 1.375-1.125 2.5-2.5 2.5h-27c-1.375 0-2.5-1.125-2.5-2.5v-19c0-1.375 1.125-2.5 2.5-2.5h27c1.375 0 2.5 1.125 2.5 2.5z"></path>
</symbol>
<symbol id="icon-certificate" viewBox="0 0 32 32">
<path d="M21 24.95v0 0c0.619-0.631 1-1.496 1-2.45 0-1.933-1.567-3.5-3.5-3.5s-3.5 1.567-3.5 3.5c0 0.954 0.381 1.818 1 2.45v1.050h-8c-0.545 0-1-0.446-1-0.995v-23.009c0-0.54 0.446-0.995 0.996-0.995h10.004v4.994c0 1.119 0.895 2.006 1.998 2.006h4.002v17.007c0 0.548-0.448 0.993-1 0.993h-2v-1.050zM17 25.663v0 0c0.455 0.216 0.963 0.337 1.5 0.337s1.045-0.121 1.5-0.337v3.937l-1.5-1.5-1.5 1.5v-3.937zM21 27h2.003c1.103 0 1.997-0.898 1.997-1.991v-18.009l-6-7h-10.997c-1.106 0-2.003 0.898-2.003 2.007v22.985c0 1.109 0.891 2.007 1.997 2.007h8.003v5l2.5-2.5 2.5 2.5v-5zM19 1.5l4.7 5.5h-3.703c-0.546 0-0.997-0.452-0.997-1.009v-4.491zM9 7v1h7v-1h-7zM9 4v1h7v-1h-7zM9 10v1h13v-1h-13zM9 13v1h13v-1h-13zM9 16v1h13v-1h-13zM18.5 25v0c-1.381 0-2.5-1.119-2.5-2.5s1.119-2.5 2.5-2.5c1.381 0 2.5 1.119 2.5 2.5s-1.119 2.5-2.5 2.5z"></path>
</symbol>
<symbol id="icon-profile" viewBox="0 0 32 32">
<path d="M28 9h-1.958v-2.938l-4.042-0.062 0.021 3h-12.146l0.083-3-3.958 0.062v3l-2-0.062c-1.104 0-2 0.896-2 2v14c0 1.104 0.896 2 2 2h24c1.104 0 2-0.896 2-2v-14c0-1.104-0.896-2-2-2zM23 7h2v4h-2v-4zM10 13.812c1.208 0 2.188 1.287 2.188 2.875s-0.98 2.875-2.188 2.875-2.188-1.287-2.188-2.875 0.98-2.875 2.188-2.875zM7 7h2v4h-2v-4zM5.667 22.948c0 0 0.237-1.902 0.776-2.261s2.090-0.598 2.090-0.598 1.006 1.075 1.434 1.075c0.427 0 1.433-1.075 1.433-1.075s1.552 0.238 2.091 0.598c0.633 0.422 0.791 2.261 0.791 2.261h-8.615zM26 22h-9v-1h9v1zM26 20h-9v-1h9v1zM26 18h-9v-1h9v1zM26 16h-9v-1h9v1z"></path>
</symbol>
<symbol id="icon-document" viewBox="0 0 24 32">
<path d="M1.5 32h21c0.827 0 1.5-0.673 1.5-1.5v-21c0-0.017-0.008-0.031-0.009-0.047-0.002-0.023-0.008-0.043-0.013-0.065-0.017-0.071-0.046-0.135-0.090-0.191-0.007-0.009-0.006-0.020-0.013-0.029l-8-9c-0.003-0.003-0.007-0.003-0.010-0.006-0.060-0.064-0.136-0.108-0.223-0.134-0.019-0.006-0.036-0.008-0.056-0.011-0.029-0.005-0.056-0.017-0.086-0.017h-14c-0.827 0-1.5 0.673-1.5 1.5v29c0 0.827 0.673 1.5 1.5 1.5zM16 1.815l6.387 7.185h-5.887c-0.22 0-0.5-0.42-0.5-0.75v-6.435zM1 1.5c0-0.276 0.225-0.5 0.5-0.5h13.5v7.25c0 0.809 0.655 1.75 1.5 1.75h6.5v20.5c0 0.276-0.225 0.5-0.5 0.5h-21c-0.28 0-0.5-0.22-0.5-0.5v-29zM5.5 14h13c0.276 0 0.5-0.224 0.5-0.5s-0.224-0.5-0.5-0.5h-13c-0.276 0-0.5 0.224-0.5 0.5s0.224 0.5 0.5 0.5zM5.5 18h13c0.276 0 0.5-0.224 0.5-0.5s-0.224-0.5-0.5-0.5h-13c-0.276 0-0.5 0.224-0.5 0.5s0.224 0.5 0.5 0.5zM5.5 10h6c0.276 0 0.5-0.224 0.5-0.5s-0.224-0.5-0.5-0.5h-6c-0.276 0-0.5 0.224-0.5 0.5s0.224 0.5 0.5 0.5zM5.5 22h13c0.276 0 0.5-0.224 0.5-0.5s-0.224-0.5-0.5-0.5h-13c-0.276 0-0.5 0.224-0.5 0.5s0.224 0.5 0.5 0.5zM5.5 26h13c0.276 0 0.5-0.224 0.5-0.5s-0.224-0.5-0.5-0.5h-13c-0.276 0-0.5 0.224-0.5 0.5s0.224 0.5 0.5 0.5z"></path>
</symbol>
<symbol id="icon-user-tie" viewBox="0 0 32 32">
<path d="M10 6c0-3.314 2.686-6 6-6s6 2.686 6 6c0 3.314-2.686 6-6 6s-6-2.686-6-6zM24.002 14h-1.107l-6.222 12.633 2.327-11.633-3-3-3 3 2.327 11.633-6.222-12.633h-1.107c-3.998 0-3.998 2.687-3.998 6v10h24v-10c0-3.313 0-6-3.998-6z"></path>
</symbol>
<symbol id="icon-briefcase" viewBox="0 0 32 32">
<path d="M30 8h-8v-2c0-1.1-0.9-2-2-2h-8c-1.1 0-2 0.9-2 2v2h-8c-1.1 0-2 0.9-2 2v18c0 1.1 0.9 2 2 2h28c1.1 0 2-0.9 2-2v-18c0-1.1-0.9-2-2-2zM12 6.004c0.001-0.001 0.002-0.003 0.004-0.004h7.993c0.001 0.001 0.003 0.002 0.004 0.004v1.996h-8v-1.996zM30 16h-4v3c0 0.55-0.45 1-1 1h-2c-0.55 0-1-0.45-1-1v-3h-12v3c0 0.55-0.45 1-1 1h-2c-0.55 0-1-0.45-1-1v-3h-4v-2h28v2z"></path>
</symbol>
<symbol id="icon-cancel" viewBox="0 0 32 32">
<path d="M16 0c-8.837 0-16 7.163-16 16s7.163 16 16 16 16-7.163 16-16-7.163-16-16-16zM16 29c-7.18 0-13-5.82-13-13s5.82-13 13-13 13 5.82 13 13-5.82 13-13 13z"></path>
<path d="M21 8l-5 5-5-5-3 3 5 5-5 5 3 3 5-5 5 5 3-3-5-5 5-5z"></path>
</symbol>
<symbol id="icon-telegram" viewBox="0 0 32 32">
<path d="M16 0c-8.838 0-16 7.162-16 16s7.162 16 16 16 16-7.163 16-16-7.163-16-16-16zM23.863 10.969l-2.625 12.369c-0.181 0.881-0.712 1.087-1.45 0.681l-4-2.956-1.919 1.869c-0.225 0.219-0.4 0.4-0.8 0.4-0.519 0-0.431-0.194-0.606-0.688l-1.363-4.475-3.956-1.231c-0.856-0.262-0.862-0.85 0.194-1.269l15.412-5.95c0.7-0.319 1.381 0.169 1.113 1.25z"></path>
</symbol>
<symbol id="icon-github" viewBox="0 0 32 32">
<path d="M16 0.395c-8.836 0-16 7.163-16 16 0 7.069 4.585 13.067 10.942 15.182 0.8 0.148 1.094-0.347 1.094-0.77 0-0.381-0.015-1.642-0.022-2.979-4.452 0.968-5.391-1.888-5.391-1.888-0.728-1.849-1.776-2.341-1.776-2.341-1.452-0.993 0.11-0.973 0.11-0.973 1.606 0.113 2.452 1.649 2.452 1.649 1.427 2.446 3.743 1.739 4.656 1.33 0.143-1.034 0.558-1.74 1.016-2.14-3.554-0.404-7.29-1.777-7.29-7.907 0-1.747 0.625-3.174 1.649-4.295-0.166-0.403-0.714-2.030 0.155-4.234 0 0 1.344-0.43 4.401 1.64 1.276-0.355 2.645-0.532 4.005-0.539 1.359 0.006 2.729 0.184 4.008 0.539 3.054-2.070 4.395-1.64 4.395-1.64 0.871 2.204 0.323 3.831 0.157 4.234 1.026 1.12 1.647 2.548 1.647 4.295 0 6.145-3.743 7.498-7.306 7.895 0.574 0.497 1.085 1.47 1.085 2.963 0 2.141-0.019 3.864-0.019 4.391 0 0.426 0.288 0.925 1.099 0.768 6.354-2.118 10.933-8.113 10.933-15.18 0-8.837-7.164-16-16-16z"></path>
</symbol>
<symbol id="icon-linkedin" viewBox="0 0 32 32">
<path d="M29 0h-26c-1.65 0-3 1.35-3 3v26c0 1.65 1.35 3 3 3h26c1.65 0 3-1.35 3-3v-26c0-1.65-1.35-3-3-3zM12 26h-4v-14h4v14zM10 10c-1.106 0-2-0.894-2-2s0.894-2 2-2c1.106 0 2 0.894 2 2s-0.894 2-2 2zM26 26h-4v-8c0-1.106-0.894-2-2-2s-2 0.894-2 2v8h-4v-14h4v2.481c0.825-1.131 2.087-2.481 3.5-2.481 2.488 0 4.5 2.238 4.5 5v9z"></path>
</symbol>
</defs>
</svg>
